<?xml version="1.0" encoding="UTF-8"?>
<svg width="11px" height="7px" viewBox="0 0 11 7" version="1.1" xmlns="http://www.w3.org/2000/svg" xmlns:xlink="http://www.w3.org/1999/xlink">
    <title>E0869589-DAE4-43D4-98DF-65FF1BCA6EEF</title>
    <g id="Sistema*-(doing)" stroke="none" stroke-width="1" fill="none" fill-rule="evenodd">
        <g id="07" transform="translate(-1353.000000, -36.000000)" fill="#52CA11">
            <path d="M1354.6857,36.3002372 L1358.50512,40.2890999 L1362.32453,36.3002372 C1362.57247,36.0412981 1362.93385,35.9401709 1363.27254,36.0349492 C1363.61124,36.1297275 1363.87578,36.4060122 1363.96654,36.7597296 C1364.05729,37.1134471 1363.96046,37.490859 1363.71252,37.7497982 L1359.19419,42.4685815 C1359.01026,42.6610627 1358.76058,42.7692308 1358.5002,42.7692308 C1358.23982,42.7692308 1357.99013,42.6610627 1357.80621,42.4685815 L1353.28788,37.7497982 C1353.10357,37.5577112 1353,37.2969486 1353,37.0250177 C1353,36.7530868 1353.10357,36.4923242 1353.28788,36.3002372 C1353.67179,35.9095754 1354.30179,35.8992949 1354.6857,36.3002372 Z" id="Arrow-icon"></path>
        </g>
    </g>
</svg>