<?xml version="1.0" encoding="UTF-8"?>
<svg width="20px" height="22px" viewBox="0 0 20 22" version="1.1" xmlns="http://www.w3.org/2000/svg" xmlns:xlink="http://www.w3.org/1999/xlink">
    <title>73AE6731-DBB1-48F8-A788-A62A2729F543</title>
    <g id="Sistema*-(doing)" stroke="none" stroke-width="1" fill="none" fill-rule="evenodd">
        <g id="23" transform="translate(-1246.000000, -107.000000)" fill="#52CA11" fill-rule="nonzero" stroke="#52CA11" stroke-width="0.3">
            <g id="Contactanos" transform="translate(1232.000000, 97.000000)">
                <g transform="translate(15.000000, 11.000000)">
                    <path d="M17.4178125,7.50597656 L16.1317188,6.21933594 L16.1317188,3.66972656 C16.1317188,2.80816406 15.4307813,2.10722656 14.5692188,2.10722656 L12.0223438,2.10722656 L10.0312109,0.114921875 C9.95796875,0.0416796875 9.85863281,0.00046875 9.75503906,0.0004296875 L8.29984375,-1.11022302e-15 C8.29980469,-1.11022302e-15 8.29976563,-1.11022302e-15 8.29972656,-1.11022302e-15 C8.19617188,-1.11022302e-15 8.09683594,0.0411328125 8.02359375,0.114335937 L6.02945313,2.10726562 L3.47546875,2.10726562 C2.61390625,2.10726562 1.91296875,2.80820312 1.91296875,3.66976562 L1.91296875,6.2234375 L0.627734375,7.50570312 C0.247460938,7.88578125 0.0380078125,8.39121094 0.0380078125,8.92890625 L0.0380078125,17.9857422 C0.0380078125,18.5277344 0.253789063,19.0199609 0.603476563,19.3821094 C0.611015625,19.3911328 0.618867188,19.4 0.62734375,19.4085156 C0.63578125,19.4169531 0.644609375,19.4247266 0.65359375,19.4322266 C1.01574219,19.7819922 1.50804688,19.9978516 2.05011719,19.9978516 L7.26457031,19.9978516 C7.4803125,19.9978516 7.65519531,19.8229297 7.65519531,19.6072266 C7.65519531,19.3915234 7.4803125,19.2166016 7.26457031,19.2166016 L2.05007813,19.2166016 C1.85292969,19.2166016 1.66664063,19.1697656 1.50125,19.0869922 L6.10550781,14.4827344 L7.60449219,15.9808203 C7.98449219,16.360625 8.48957031,16.5697266 9.02679688,16.5697266 L9.02742188,16.5697266 C9.56488281,16.5695703 10.0700781,16.3601172 10.45,15.9799609 L11.9427344,14.4862891 L16.5434375,19.0869922 C16.3780859,19.1697266 16.1917578,19.2166016 15.9946094,19.2166016 L10.7801953,19.2166016 C10.5644531,19.2166016 10.3895703,19.3915234 10.3895703,19.6072266 C10.3895703,19.8229297 10.5644531,19.9978516 10.7801953,19.9978516 L15.9946875,19.9978516 C16.5366797,19.9978516 17.0289844,19.7820312 17.3911328,19.4323047 C17.4001563,19.4247656 17.4090234,19.4169531 17.4174609,19.4085156 C17.4259766,19.4 17.4337891,19.3911328 17.4413672,19.3820703 C17.7910156,19.0199219 18.0067969,18.5276953 18.0067969,17.9857422 L18.0067969,8.92832031 C18.0067969,8.39113281 17.7976172,7.88601563 17.4178125,7.50597656 L17.4178125,7.50597656 Z M16.1317578,7.32441406 L16.8652344,8.05824219 C16.9329688,8.12601562 16.9915234,8.20046875 17.0409375,8.27984375 L16.1317578,9.18960937 L16.1317578,7.32441406 Z M8.46140625,0.781289062 L9.59300781,0.781679687 L10.9177734,2.10726562 L7.13460938,2.10726562 L8.46140625,0.781289062 Z M1.17976563,8.05855469 L1.91300781,7.32699219 L1.91300781,9.18832031 L1.0040625,8.27996094 C1.05347656,8.200625 1.11207031,8.12621094 1.17976563,8.05855469 Z M0.948828125,18.5345703 C0.86609375,18.3692187 0.819257813,18.1829297 0.819257813,17.9857812 L0.819257813,9.19972656 L5.55292969,13.9304687 L0.948828125,18.5345703 Z M9.89746094,15.4277344 C9.66503906,15.6602734 9.35601563,15.7884766 9.02722656,15.7884766 C9.02710938,15.7884766 9.02699219,15.7884766 9.026875,15.7884766 C8.69824219,15.7884766 8.38925781,15.6605469 8.15679687,15.4282031 L2.69425781,9.9690625 L2.69425781,3.66972656 C2.69425781,3.23894531 3.04472656,2.88847656 3.47550781,2.88847656 L14.5692578,2.88847656 C15.0000391,2.88847656 15.3505078,3.23894531 15.3505078,3.66972656 L15.3505078,6.33121094 C15.3467969,6.36226563 15.3467969,6.39359375 15.3505078,6.42464844 L15.3505078,9.97128906 L9.89746094,15.4277344 Z M17.2255078,17.9857812 C17.2255078,18.1829297 17.1786719,18.3692187 17.0959375,18.5345703 L12.4950781,13.9337109 L17.2255078,9.20039062 L17.2255078,17.9857812 Z" id="XMLID_89_"></path>
                    <path d="M9.02238281,19.2164844 C8.91964844,19.2164844 8.81886719,19.2582812 8.74621094,19.3309375 C8.67355469,19.4035938 8.63175781,19.504375 8.63175781,19.6071094 C8.63175781,19.7098438 8.67355469,19.810625 8.74621094,19.8832812 C8.81886719,19.9563281 8.91964844,19.9977344 9.02238281,19.9977344 C9.12511719,19.9977344 9.22589844,19.9563281 9.29855469,19.8832812 C9.37121094,19.810625 9.41300781,19.7098438 9.41300781,19.6071094 C9.41300781,19.504375 9.37121094,19.4035938 9.29855469,19.3309375 C9.22589844,19.2583203 9.12511719,19.2164844 9.02238281,19.2164844 Z" id="XMLID_135_"></path>
                    <path d="M9.02238281,4.52667969 C6.98871094,4.52667969 5.33421875,6.18113281 5.33421875,8.21480469 C5.33421875,10.2762891 7.01136719,11.9534375 9.07285156,11.9534375 L11.4470313,11.9534375 C11.6627734,11.9534375 11.8376563,11.7785156 11.8376563,11.5628125 C11.8376563,11.3471094 11.6627734,11.1721875 11.4470313,11.1721875 L9.07285156,11.1721875 C7.44214844,11.1721875 6.11546875,9.84550781 6.11546875,8.21480469 C6.11546875,6.61195312 7.41949219,5.30792969 9.02238281,5.30792969 C10.6252734,5.30792969 11.9292969,6.61195313 11.9292969,8.21480469 L11.9292969,9.0153125 C11.9292969,9.32296875 11.6789844,9.57324219 11.3713281,9.57324219 C11.0636719,9.57324219 10.8133594,9.32296875 10.8133594,9.0153125 L10.8133594,8.11113281 C10.8133594,7.04164063 9.94328125,6.1715625 8.87378906,6.1715625 C7.74917969,6.1715625 6.83429688,7.08648437 6.83429688,8.21109375 C6.83429688,9.33566406 7.74921875,10.2505859 8.87378906,10.2505859 L9.49519531,10.2505859 C9.7109375,10.2505859 9.88582031,10.0756641 9.88582031,9.85996094 C9.88582031,9.64425781 9.7109375,9.46933594 9.49519531,9.46933594 L8.87378906,9.46933594 C8.18,9.46933594 7.61554688,8.90488281 7.61554688,8.21105469 C7.61554688,7.51726563 8.18,6.9528125 8.87378906,6.9528125 C9.5125,6.9528125 10.0321094,7.47246094 10.0321094,8.11113281 L10.0321094,9.0153125 C10.0321094,9.75375 10.6328516,10.3544922 11.3713281,10.3544922 C12.1098047,10.3544922 12.7105469,9.75375 12.7105469,9.0153125 L12.7105469,8.21480469 C12.7105469,6.18113281 11.0560156,4.52667969 9.02238281,4.52667969 L9.02238281,4.52667969 Z" id="XMLID_136_"></path>
                </g>
            </g>
        </g>
    </g>
</svg>