<?xml version="1.0" encoding="UTF-8"?>
<svg width="30px" height="30px" viewBox="0 0 30 30" version="1.1" xmlns="http://www.w3.org/2000/svg" xmlns:xlink="http://www.w3.org/1999/xlink">
    <title>285D2E21-7C76-4840-9CAC-EF91AF84A058</title>
    <defs>
        <filter id="filter-1">
            <feColorMatrix in="SourceGraphic" type="matrix" values="0 0 0 0 0.070588 0 0 0 0 0.145098 0 0 0 0 0.266667 0 0 0 1.000000 0"></feColorMatrix>
        </filter>
    </defs>
    <g id="Sistema*-(doing)" stroke="none" stroke-width="1" fill="none" fill-rule="evenodd">
        <g id="21-2" transform="translate(-1295.000000, -209.000000)">
            <rect fill="#FCFDFF" x="0" y="0" width="1440" height="800"></rect>
            <g filter="url(#filter-1)" id="Organization-/-File-/-download-/-24">
                <g transform="translate(1295.000000, 209.000000)">
                    <path d="M22.2346672,24.375 L8.70086429,24.375 C7.00301063,24.372934 5.62716909,23.0624777 5.625,21.4453125 C5.625,21.0406776 5.96938801,20.7126562 6.39421214,20.7126562 C6.81903628,20.7126562 7.16342428,21.0406776 7.16342428,21.4453125 C7.16396722,22.2543679 7.85242529,22.9101079 8.70184857,22.910625 L22.2356514,22.910625 C23.0846908,22.9101086 23.7729902,22.2549393 23.7740757,21.44625 C23.7740757,21.0416151 24.1184637,20.7135937 24.5432879,20.7135937 C24.968112,20.7135937 25.3125,21.0416151 25.3125,21.44625 C25.3097866,23.0637802 23.9329059,24.3739682 22.2346672,24.375 Z M17.0593409,19.081875 L21.3163371,15.043125 C21.5959056,14.7550546 21.5874358,14.3083015 21.2971302,14.0300327 C21.0068246,13.7517639 20.5378439,13.7408628 20.2336329,14.0053125 L15.9756524,18.045 C15.6759623,18.3281354 15.1926383,18.3281354 14.8929482,18.045 L10.7097728,14.01 C10.4107923,13.7218627 9.92318467,13.7191344 9.62067075,14.0039062 C9.31815682,14.2886781 9.31529243,14.7531127 9.61427295,15.04125 L13.7944956,19.0771875 L13.7944956,19.0771875 C14.6957234,19.9331355 16.154176,19.9331355 17.0554038,19.0771875 L17.0593409,19.081875 Z M16.2364857,15.331875 L16.2364857,6.35718747 C16.2364857,5.95281149 15.892318,5.625 15.4677657,5.625 C15.0432134,5.625 14.6990457,5.95281149 14.6990457,6.35718747 L14.6990457,15.3290625 C14.6990457,15.7336974 15.0434337,16.0617187 15.4682579,16.0617187 C15.893082,16.0617187 16.23747,15.7336974 16.23747,15.3290625 L16.2364857,15.331875 Z" id="Copia_de_146-download-3" fill="#FFFFFF"></path>
                </g>
            </g>
        </g>
    </g>
</svg>