<?xml version="1.0" encoding="UTF-8"?>
<svg width="33px" height="32px" viewBox="0 0 33 32" version="1.1" xmlns="http://www.w3.org/2000/svg" xmlns:xlink="http://www.w3.org/1999/xlink">
    <title>EE4F7484-4627-46BF-B1E7-59FF6F569DA1</title>
    <defs>
        <linearGradient x1="24.6658937%" y1="-3.32546343%" x2="73.5820044%" y2="96.8262227%" id="linearGradient-1">
            <stop stop-color="#98EB6B" offset="0%"></stop>
            <stop stop-color="#52CA11" offset="100%"></stop>
        </linearGradient>
    </defs>
    <g id="Sistema*-(doing)" stroke="none" stroke-width="1" fill="none" fill-rule="evenodd">
        <g id="18" transform="translate(-24.000000, -22.000000)">
            <g id="Group-4" transform="translate(24.000000, 22.000000)">
                <g id="Group-Copy" fill="url(#linearGradient-1)">
                    <path d="M0,0 L23.594571,0 C28.3200701,-8.68060101e-16 32.150844,3.83077391 32.150844,8.556273 L32.150844,31.11372 L32.150844,31.11372 L8.556273,31.11372 C3.83077391,31.11372 4.13142041e-15,27.2829461 0,22.557447 L0,0 L0,0 Z" id="Rectangle"></path>
                </g>
                <g id="Group-2" transform="translate(4.185841, 3.667279)" fill="#FFFFFF" fill-rule="nonzero">
                    <path d="M9.39635756,1.86421882 L9.40982882,1.84213658 C9.46468949,1.87634356 9.51734994,1.91375359 9.56751045,1.95414107 C9.93001937,2.24602053 10.1447049,2.67780396 10.1447049,3.14370124 C10.1447049,4.00184357 9.42326919,4.6925606 8.53914605,4.6925606 C8.1369054,4.6925606 7.8136052,4.56386054 7.48553407,4.31371772 L7.44905666,4.35003 C6.94717545,3.86536894 6.25720254,3.65462322 5.58103363,3.76176887 C5.1148815,3.83563528 4.6846133,4.05674147 4.34958745,4.4036709 C3.95363191,4.81369486 3.73894035,5.35014878 3.73466976,5.90878082 C3.73010545,6.50583446 3.96603305,7.08004024 4.40414915,7.50312403 C4.81896001,7.90370222 5.36300286,8.11882611 5.92805839,8.1185516 C6.5449964,8.11825187 7.1280784,7.88317852 7.49345289,7.46060635 L7.50294553,7.44695098 L6.75817095,6.88281424 C6.58739193,6.75333047 6.48707042,6.55137033 6.48707042,6.33705392 C6.48707042,5.95879785 6.79370755,5.65216072 7.17196363,5.65216072 L10.8529455,5.65195098 L11.1288953,5.61589438 C11.3374985,7.17782271 10.8587518,8.54844922 9.70360053,9.70360052 C7.83995639,11.5672447 4.12869575,11.6836608 2.14863547,9.70360052 C1.10926701,8.66423205 0.558740777,7.26952883 0.584831998,5.82881261 C0.59712727,5.14988703 0.737951932,4.4785307 1.00156588,3.85203385 C1.26730735,3.22048078 1.65387946,2.64339149 2.14863547,2.14863547 C4.13532505,0.161945902 7.29748065,0.0671403508 9.39635756,1.86421882 Z M2.53606958,2.53606958 C2.09167972,2.98045944 1.74494483,3.49807825 1.50659353,4.06453665 C1.27009477,4.62659239 1.14369574,5.22917708 1.13265674,5.83873366 C1.10923201,7.13221023 1.60298351,8.38308034 2.53606958,9.31616642 C4.29653184,11.0766287 7.66124984,10.971083 9.31616642,9.31616642 C10.2226316,8.40970122 10.6571468,7.37658398 10.6270475,6.2006135 L7.17196363,6.20007528 C7.09631241,6.20007528 7.03498499,6.26140271 7.03498499,6.33705392 C7.03498499,6.3799172 7.05504929,6.42030923 7.08920509,6.44620599 L8.28329333,7.35155757 L7.95225919,7.78816583 L7.94177199,7.77893114 C7.93063037,7.7924112 7.91934654,7.80575871 7.90792058,7.81897335 C7.43196262,8.36944032 6.69613747,8.66609307 5.92832458,8.6664661 C5.22255687,8.66680898 4.54159522,8.39754504 4.02353571,7.89726079 C3.47633113,7.36883147 3.18107107,6.65022107 3.1867712,5.90459228 C3.19210581,5.20677727 3.46087019,4.53521057 3.9554507,4.02305746 C4.37383696,3.5898058 4.91262351,3.3129342 5.49528108,3.22060635 C6.27945189,3.09634674 7.07981927,3.31489439 7.69216389,3.8317135 L7.71907807,3.79853789 C7.99949344,4.03582802 8.23588156,4.14464603 8.53914605,4.14464603 C9.12586939,4.14464603 9.59679034,3.69377686 9.59679034,3.14370124 C9.59679034,2.90508213 9.50813265,2.67989891 9.35105145,2.50220848 L9.31616642,2.53606958 C7.44389438,0.663797535 4.40834162,0.663797535 2.53606958,2.53606958 Z" id="Combined-Shape"></path>
                </g>
                <text id="O" font-family="GothamBold, Gotham Bold" font-size="14.001174" font-weight="bold" fill="#FFFFFF">
                    <tspan x="15.816141" y="14.667058">O</tspan>
                </text>
                <text id="RU" font-family="GothamBold, Gotham Bold" font-size="13.741893" font-weight="bold" line-spacing="12.704769" letter-spacing="1.65939865" fill="#FFFFFF">
                    <tspan x="5.444901" y="24.779017">R</tspan>
                    <tspan x="17.0396883" y="24.779017">U</tspan>
                </text>
            </g>
        </g>
    </g>
</svg>