<?xml version="1.0" encoding="UTF-8"?>
<svg width="22px" height="22px" viewBox="0 0 22 22" version="1.1" xmlns="http://www.w3.org/2000/svg" xmlns:xlink="http://www.w3.org/1999/xlink">
    <title>B541E54C-64AA-43E1-9865-73E36F8190C9</title>
    <g id="Sistema*-(doing)" stroke="none" stroke-width="1" fill="none" fill-rule="evenodd">
        <g id="21-2" transform="translate(-1342.000000, -213.000000)" fill="#122544" fill-rule="nonzero">
            <g id="Imprimir" transform="translate(1342.000000, 213.000000)">
                <path d="M20.3706747,4.72673092 L17.9157751,4.72673092 L17.9157751,0.718578313 C17.9157751,0.35253012 17.6190843,0.0559277108 17.2531245,0.0559277108 L4.66373494,0.0559277108 C4.2977751,0.0559277108 4.00108434,0.35253012 4.00108434,0.718578313 L4.00108434,4.72673092 L1.54618474,4.72673092 C0.693662651,4.72673092 0,5.42030522 0,6.27291566 L0,14.7747229 C0,15.627245 0.693662651,16.3209076 1.54618474,16.3209076 L4.00108434,16.3209076 L4.00108434,19.6079197 C4.00108434,19.9739679 4.2977751,20.2705703 4.66373494,20.2705703 L17.2530361,20.2705703 C17.618996,20.2705703 17.9156867,19.9739679 17.9156867,19.6079197 L17.9156867,16.3209076 L20.3705863,16.3209076 C21.2231084,16.3209076 21.9167711,15.627245 21.9167711,14.7747229 L21.9167711,6.27291566 C21.9167711,5.42039357 21.2231968,4.72673092 20.3706747,4.72673092 Z M5.32638554,1.38122892 L16.5903855,1.38122892 L16.5903855,4.72673092 L5.32638554,4.72673092 L5.32638554,1.38122892 Z M16.5903855,18.9452691 L5.32638554,18.9452691 L5.32638554,12.3714217 L16.5903855,12.3714217 L16.5903855,18.9452691 Z M20.5915582,14.7747229 C20.5915582,14.8944418 20.4903936,14.9956064 20.3706747,14.9956064 L17.9157751,14.9956064 L17.9157751,11.7087711 C17.9157751,11.3427229 17.6190843,11.0461205 17.2531245,11.0461205 L4.66373494,11.0461205 C4.2977751,11.0461205 4.00108434,11.3427229 4.00108434,11.7087711 L4.00108434,14.9956064 L1.54618474,14.9956064 C1.42646586,14.9956064 1.3253012,14.8944418 1.3253012,14.7747229 L1.3253012,6.27291566 C1.3253012,6.15310843 1.42646586,6.05203213 1.54618474,6.05203213 L4.66373494,6.05203213 L17.2530361,6.05203213 L20.3705863,6.05203213 C20.4903052,6.05203213 20.5915582,6.15310843 20.5915582,6.27291566 L20.5915582,14.7747229 L20.5915582,14.7747229 Z" id="Shape"></path>
                <circle id="Oval" cx="17.2530361" cy="8.54907631" r="1"></circle>
                <path d="M13.9731807,13.6790522 L7.94359036,13.6790522 C7.57763052,13.6790522 7.28093976,13.9756546 7.28093976,14.3417028 C7.28093976,14.707751 7.57763052,15.0043534 7.94359036,15.0043534 L13.9731807,15.0043534 C14.3391406,15.0043534 14.6358313,14.707751 14.6358313,14.3417028 C14.6358313,13.975743 14.3392289,13.6790522 13.9731807,13.6790522 Z" id="Path"></path>
                <path d="M13.9731807,16.3120723 L7.94359036,16.3120723 C7.57763052,16.3120723 7.28093976,16.6086747 7.28093976,16.9747229 C7.28093976,17.3407711 7.57763052,17.6373735 7.94359036,17.6373735 L13.9731807,17.6373735 C14.3391406,17.6373735 14.6358313,17.3407711 14.6358313,16.9747229 C14.6358313,16.6086747 14.3392289,16.3120723 13.9731807,16.3120723 Z" id="Path"></path>
            </g>
        </g>
    </g>
</svg>