<?xml version="1.0" encoding="UTF-8"?>
<svg width="24px" height="24px" viewBox="0 0 24 24" version="1.1" xmlns="http://www.w3.org/2000/svg" xmlns:xlink="http://www.w3.org/1999/xlink">
    <title>47A8F57D-C886-4C7D-B4CB-8BAA0AFA7AAA</title>
    <g id="Sistema*-(doing)" stroke="none" stroke-width="1" fill="none" fill-rule="evenodd">
        <g id="18" transform="translate(-28.000000, -89.000000)">
            <g id="Inicio" transform="translate(28.000000, 89.000000)">
                <rect id="ViewBox" x="0" y="0" width="24" height="24"></rect>
                <g id="Group" transform="translate(2.000000, 2.000000)" fill="#8092AF" fill-rule="nonzero">
                    <path d="M9.386,0.21 C9.7471336,-0.0709253009 10.2528664,-0.0709253009 10.614,0.21 L18.842,6.61 C19.5732317,7.1788237 20.0006427,8.05357689 20,8.98 L20,18 C20,19.1045695 19.1045695,20 18,20 L14,20 C12.8954305,20 12,19.1045695 12,18 L12,12 L8,12 L8,18 C8,19.1045695 7.1045695,20 6,20 L2,20 C0.8954305,20 0,19.1045695 0,18 L0,8.98 C0,8.052 0.428,7.18 1.16,6.61 L9.386,0.21 Z M9.99999637,2.266 L2.386,8.188 C2.14170034,8.37803855 1.99916706,8.67049025 1.99999637,8.98 L1.99999637,18 L5.99999637,18 L5.99999637,12 C5.99999637,10.8954305 6.8954305,10 7.99999637,10 L11.9999964,10 C13.1045695,10 13.9999964,10.8954305 13.9999964,12 L13.9999964,18 L17.9999964,18 L17.9999964,8.98 C18.0008329,8.67049025 17.8582997,8.37803855 17.614,8.188 L9.99999637,2.268 L9.99999637,2.266 Z" id="Shape"></path>
                </g>
            </g>
        </g>
    </g>
</svg>