<?xml version="1.0" encoding="UTF-8"?>
<svg width="24px" height="27px" viewBox="0 0 24 27" version="1.1" xmlns="http://www.w3.org/2000/svg" xmlns:xlink="http://www.w3.org/1999/xlink">
    <title>CA25832A-23A2-4AD0-B032-5676388FF23B</title>
    <g id="Sistema*-(doing)" stroke="none" stroke-width="1" fill="none" fill-rule="evenodd">
        <g id="07-4" transform="translate(-28.000000, -461.000000)" fill="#52CA11" fill-rule="nonzero">
            <g id="Group-7" transform="translate(0.000000, 365.000000)">
                <g id="Instrumentos" transform="translate(28.000000, 96.000000)">
                    <path d="M22.4348348,6.88706087 L19.6954957,6.88706087 L23.8472348,2.73532174 C24.0509739,2.53158261 24.0509739,2.20121739 23.8472348,1.99747826 L22.0026261,0.152817391 C21.9048,0.0549913043 21.7720696,0 21.6337043,0 C21.4953391,0 21.3626609,0.0549391304 21.2647826,0.152817391 L14.530487,6.88706087 L1.56526957,6.88706087 C0.702208696,6.88706087 5.2173913e-05,7.58921739 5.2173913e-05,8.45227826 L5.2173913e-05,25.1479304 C5.2173913e-05,26.0109913 0.702208696,26.7131478 1.56526957,26.7131478 L22.4348348,26.7131478 C23.2978957,26.7131478 24.0000522,26.0109913 24.0000522,25.1479304 L24.0000522,8.45227826 C24.0000522,7.58921739 23.2978957,6.88706087 22.4348348,6.88706087 L22.4348348,6.88706087 Z M21.6337043,1.25958261 L22.7404696,2.36634783 L15.1408696,9.96594783 L14.0340522,8.85918261 L21.6337043,1.25958261 Z M8.88751304,14.0057739 L9.99427826,15.1125391 L8.80841739,16.2984 L7.14829565,16.8517565 L7.70165217,15.1916348 L8.88751304,14.0057739 Z M6.87667826,14.5408696 C6.72412174,14.6493913 5.8670087,17.4582261 5.82834783,17.5117565 C5.76589565,17.6992696 5.81467826,17.9059304 5.9544,18.0457043 C6.09443478,18.1861043 6.30292174,18.2339478 6.48829565,18.1717565 L9.25523478,17.2494261 C9.33208696,17.2238087 9.40189565,17.1806609 9.45918261,17.1233739 L13.4346261,13.1479304 L20.8696174,13.1479304 L20.8696174,23.582713 L3.13048696,23.582713 L3.13048696,13.1479304 L8.26961739,13.1479304 L6.87667826,14.5408696 Z M10.7321739,14.3746435 L9.6254087,13.2678783 L13.2962087,9.59707826 L14.4030261,10.7038435 L10.7321739,14.3746435 Z M22.9565739,25.1479304 C22.9565739,25.4356174 22.7225217,25.6696696 22.4348348,25.6696696 L1.56526957,25.6696696 C1.27758261,25.6696696 1.04353043,25.4356174 1.04353043,25.1479304 L1.04353043,8.45227826 C1.04353043,8.1645913 1.27758261,7.93053913 1.56526957,7.93053913 L13.4870087,7.93053913 L9.31309565,12.1044522 L2.60874783,12.1044522 C2.3205913,12.1044522 2.0870087,12.3380348 2.0870087,12.6261913 L2.0870087,24.1044522 C2.0870087,24.3926087 2.3205913,24.6261913 2.60874783,24.6261913 L21.3913565,24.6261913 C21.6794609,24.6261913 21.9130957,24.3926087 21.9130957,24.1044522 L21.9130957,12.6261913 C21.9130957,12.3380348 21.6794609,12.1044522 21.3913565,12.1044522 L14.4781043,12.1044522 L18.6520174,7.93053913 L22.4348348,7.93053913 C22.7225217,7.93053913 22.9565739,8.1645913 22.9565739,8.45227826 L22.9565739,25.1479304 Z" id="Shape"></path>
                    <path d="M2.60874783,10.5392348 L4.69570435,10.5392348 C5.38648696,10.5139304 5.38737391,9.52142609 4.69570435,9.49575652 L2.6088,9.49575652 C2.32064348,9.49575652 2.08706087,9.72933913 2.08706087,10.0174957 C2.08706087,10.3056522 2.3205913,10.5392348 2.60874783,10.5392348 Z" id="Path"></path>
                    <path d="M21.3913565,9.49575652 L19.3044522,9.49575652 C18.6136696,9.52106087 18.6127826,10.5135652 19.3044522,10.5392348 L21.3913565,10.5392348 C21.6794609,10.5392348 21.9130957,10.3056522 21.9130957,10.0174957 C21.9130957,9.72933913 21.6794609,9.49575652 21.3913565,9.49575652 Z" id="Path"></path>
                </g>
            </g>
        </g>
    </g>
</svg>