<?xml version="1.0" encoding="UTF-8"?>
<svg width="24px" height="26px" viewBox="0 0 24 26" version="1.1" xmlns="http://www.w3.org/2000/svg" xmlns:xlink="http://www.w3.org/1999/xlink">
    <title>31A46102-33FF-4B0C-A6B7-B1642A1490E7</title>
    <g id="Sistema*-(doing)" stroke="none" stroke-width="1" fill="none" fill-rule="evenodd">
        <g id="07" transform="translate(-1135.000000, -25.000000)">
            <g id="Notificaciones" transform="translate(1135.000000, 26.000000)">
                <rect id="ViewBox" x="0" y="1" width="24" height="24"></rect>
                <g id="Group" transform="translate(3.000000, 0.000000)">
                    <path d="M7.146,4.248 C7.45164658,3.4925652 8.18507573,2.99812266 9,2.99812266 C9.81492427,2.99812266 10.5483534,3.4925652 10.854,4.248 C13.8935071,5.08391729 15.9998648,7.84764201 16,11 L16,15.697 L17.832,18.445 C18.0367322,18.7518587 18.0559019,19.1465085 17.881874,19.471765 C17.707846,19.7970216 17.3688869,20.0000552 17,20 L12.465,20 C12.2160995,21.7222099 10.740103,23.0002246 9,23.0002246 C7.25989697,23.0002246 5.78390054,21.7222099 5.535,20 L1,20 C0.631113147,20.0000552 0.292153952,19.7970216 0.118126032,19.471765 C-0.0559018879,19.1465085 -0.0367322097,18.7518587 0.168,18.445 L2,15.697 L2,11 C2,7.776 4.18,5.06 7.146,4.248 Z M7.586,20 C7.79765289,20.5997387 8.36450987,21.0008109 9.0005,21.0008109 C9.63649013,21.0008109 10.2033471,20.5997387 10.415,20 L7.585,20 L7.586,20 Z M9,6 C6.23857625,6 4,8.23857625 4,11 L4,16 C4.00004431,16.1975323 3.94158612,16.3906531 3.832,16.555 L2.869,18 L15.13,18 L14.167,16.555 C14.0577672,16.3905415 13.9996595,16.1974292 14,16 L14,11 C14,8.23857625 11.7614237,6 9,6 L9,6 Z" id="Shape" fill="#122544" fill-rule="nonzero"></path>
                    <!-- <circle id="Oval" stroke="#FFFFFF" fill="#52CA11" cx="14.5" cy="4.5" r="4.5"></circle> -->
                    <circle id="Oval" stroke="#FFFFFF" fill="#808080" cx="14.5" cy="4.5" r="4.5"></circle>

                </g>
            </g>
        </g>
    </g>
</svg>