<?xml version="1.0" encoding="UTF-8"?>
<svg width="26px" height="23px" viewBox="0 0 26 23" version="1.1" xmlns="http://www.w3.org/2000/svg" xmlns:xlink="http://www.w3.org/1999/xlink">
    <title>05AEA3D3-65F4-4AD9-A789-27402E9115AF</title>
    <g id="Sistema*-(doing)" stroke="none" stroke-width="1" fill="none" fill-rule="evenodd">
        <g id="07-2" transform="translate(-27.000000, -312.000000)">
            <g id="Portafolio" transform="translate(28.000000, 312.000000)">
                <rect id="ViewBox" x="0" y="0" width="24" height="22.974359"></rect>
                <path d="M21.9958333,9.17948718 L20,9.17948718 L20,7.02564103 C20,5.83653846 19.1041667,4.87179487 18,4.87179487 L11.3333333,4.87179487 L8.66666667,2 L2,2 C0.895833333,2 0,2.96474359 0,4.15384615 L0,17.0769231 C0,18.2660256 0.895833333,19.2307692 2,19.2307692 L18.6666667,19.2307692 C19.3541667,19.2307692 19.9958333,18.849359 20.3625,18.2166667 L23.6916667,12.4730769 C24.525,11.0416667 23.5666667,9.17948718 21.9958333,9.17948718 Z M2,4.42307692 C2,4.275 2.1125,4.15384615 2.25,4.15384615 L7.8375,4.15384615 L10.5041667,7.02564103 L17.75,7.02564103 C17.8875,7.02564103 18,7.14679487 18,7.29487179 L18,9.17948718 L6.33333333,9.17948718 C5.63333333,9.17948718 4.98333333,9.57435897 4.62083333,10.2205128 L2,14.8961538 L2,4.42307692 Z M18.6666667,17.0769231 L3,17.0769231 L6.21666667,11.3333333 L22,11.3333333 L18.6666667,17.0769231 Z" id="Shape" stroke="#122544" stroke-width="0.6" fill="#FFFFFF" fill-rule="nonzero"></path>
            </g>
        </g>
    </g>
</svg>