<?xml version="1.0" encoding="UTF-8"?>
<svg width="24px" height="19px" viewBox="0 0 24 19" version="1.1" xmlns="http://www.w3.org/2000/svg" xmlns:xlink="http://www.w3.org/1999/xlink">
    <title>B0EDFC47-B9CA-4D5A-A83C-8AABEE6AE496</title>
    <g id="Sistema*-(doing)" stroke="none" stroke-width="1" fill="none" fill-rule="evenodd">
        <g id="07" transform="translate(-28.000000, -365.000000)" fill="#FFFFFF" fill-rule="nonzero">
            <g id="Programa" transform="translate(28.000000, 365.000000)">
                <path d="M23.296875,0.011578125 L0.703125,0.011578125 C0.3148125,0.011578125 0,0.326390625 0,0.714703125 L0,18.2227969 C0,18.6111094 0.3148125,18.9259219 0.703125,18.9259219 L23.296875,18.9259219 C23.6851875,18.9259219 24,18.6111094 24,18.2227969 L24,0.714703125 C24,0.326390625 23.6851875,0.011578125 23.296875,0.011578125 Z M22.59375,17.5196719 L1.40625,17.5196719 L1.40625,5.78751563 L22.59375,5.78751563 L22.59375,17.5196719 Z M22.59375,4.38126563 L1.40625,4.38126563 L1.40625,1.41782813 L22.59375,1.41782813 L22.59375,4.38126563 Z" id="Shape"></path>
                <path d="M7.84546875,8.95854687 L4.44140625,8.95854687 C4.05309375,8.95854687 3.73828125,9.27335937 3.73828125,9.66167187 L3.73828125,12.6529062 C3.73828125,13.0412187 4.05309375,13.3560312 4.44140625,13.3560312 L7.84546875,13.3560312 C8.23378125,13.3560312 8.54859375,13.0412187 8.54859375,12.6529062 L8.54859375,9.66167187 C8.54859375,9.27335937 8.23378125,8.95854687 7.84546875,8.95854687 Z M7.14234375,11.9497344 L5.14453125,11.9497344 L5.14453125,10.36475 L7.14234375,10.36475 L7.14234375,11.9497344 Z" id="Shape"></path>
                <path d="M13.7019844,8.95854687 L10.2979687,8.95854687 C9.90965625,8.95854687 9.59484375,9.27335937 9.59484375,9.66167187 L9.59484375,12.6529062 C9.59484375,13.0412187 9.90965625,13.3560312 10.2979687,13.3560312 L13.7019844,13.3560312 C14.0902969,13.3560312 14.4051094,13.0412187 14.4051094,12.6529062 L14.4051094,9.66167187 C14.4051094,9.27335937 14.0902969,8.95854687 13.7019844,8.95854687 Z M12.9988594,11.9497344 L11.0010937,11.9497344 L11.0010937,10.36475 L12.9988594,10.36475 L12.9988594,11.9497344 L12.9988594,11.9497344 Z" id="Shape"></path>
                <path d="M19.5585937,8.9585 L16.1545312,8.9585 C15.7662187,8.9585 15.4514062,9.2733125 15.4514062,9.661625 L15.4514062,12.6528594 C15.4514062,13.0411719 15.7662187,13.3559844 16.1545312,13.3559844 L19.5585937,13.3559844 C19.9469062,13.3559844 20.2617187,13.0411719 20.2617187,12.6528594 L20.2617187,9.661625 C20.2617187,9.2733125 19.9469062,8.9585 19.5585937,8.9585 Z M18.8554687,11.9497813 L16.8576562,11.9497813 L16.8576562,10.3647969 L18.8554687,10.3647969 L18.8554687,11.9497813 Z" id="Shape"></path>
                <path d="M3.29667187,2.26171875 L2.82407813,2.26171875 C2.43576563,2.26171875 2.12095313,2.57653125 2.12095313,2.96484375 C2.12095313,3.35315625 2.43571875,3.66796875 2.82407813,3.66796875 L3.29667188,3.66796875 C3.68498438,3.66796875 3.99979688,3.35315625 3.99979688,2.96484375 C3.99979688,2.57653125 3.68498437,2.26171875 3.29667187,2.26171875 Z" id="Path"></path>
                <path d="M5.764125,2.26171875 L5.29153125,2.26171875 C4.90321875,2.26171875 4.58840625,2.57653125 4.58840625,2.96484375 C4.58840625,3.35315625 4.90321875,3.66796875 5.29153125,3.66796875 L5.764125,3.66796875 C6.1524375,3.66796875 6.46725,3.35315625 6.46725,2.96484375 C6.46725,2.57653125 6.1524375,2.26171875 5.764125,2.26171875 Z" id="Path"></path>
                <path d="M8.23157812,2.26171875 L7.7589375,2.26171875 C7.370625,2.26171875 7.0558125,2.57653125 7.0558125,2.96484375 C7.0558125,3.35315625 7.370625,3.66796875 7.7589375,3.66796875 L8.23157812,3.66796875 C8.61989062,3.66796875 8.93470312,3.35315625 8.93470312,2.96484375 C8.93470312,2.57653125 8.61989062,2.26171875 8.23157812,2.26171875 Z" id="Path"></path>
            </g>
        </g>
    </g>
</svg>