<?xml version="1.0" encoding="UTF-8"?>
<svg width="24px" height="22px" viewBox="0 0 24 22" version="1.1" xmlns="http://www.w3.org/2000/svg" xmlns:xlink="http://www.w3.org/1999/xlink">
    <title>2A2C0D04-A3CC-4B4D-AD7D-3BF5692328FD</title>
    <defs>
        <filter id="filter-1">
            <feColorMatrix in="SourceGraphic" type="matrix" values="0 0 0 0 0.321569 0 0 0 0 0.792157 0 0 0 0 0.066667 0 0 0 1.000000 0"></feColorMatrix>
        </filter>
    </defs>
    <g id="Sistema*-(doing)" stroke="none" stroke-width="1" fill="none" fill-rule="evenodd">
        <g id="Proyecto" transform="translate(-28.000000, -415.000000)" filter="url(#filter-1)">
            <g transform="translate(28.000000, 415.000000)">
                <path d="M23.7294769,7.65489231 L16.3451077,0.270461538 C16.1699692,0.0952615385 15.9306462,0 15.6923077,0 L2.76923077,0 C1.24227692,0 0,1.24227692 0,2.76923077 L0,18.7384615 C0,20.2654154 1.24227692,21.5076923 2.76923077,21.5076923 L21.2307692,21.5076923 C22.7577231,21.5076923 24,20.2654154 24,18.7384615 L24,8.30769231 C24,8.0544 23.8927385,7.81803077 23.7294769,7.65489231 Z M16.6153846,3.15156923 L20.8484308,7.38461538 L17.5384615,7.38461538 C17.0294769,7.38461538 16.6153846,6.97052308 16.6153846,6.46153846 L16.6153846,3.15156923 Z M21.2307692,19.6615385 L2.76923077,19.6615385 C2.26024615,19.6615385 1.84615385,19.2474462 1.84615385,18.7384615 L1.84615385,2.76923077 C1.84615385,2.26024615 2.26024615,1.84615385 2.76923077,1.84615385 L14.7692308,1.84615385 L14.7692308,6.46153846 C14.7692308,7.98849231 16.0115077,9.23076923 17.5384615,9.23076923 L22.1538462,9.23076923 L22.1538462,18.7384615 C22.1538462,19.2474462 21.7397538,19.6615385 21.2307692,19.6615385 Z" id="Shape" fill="#52CA11" fill-rule="nonzero"></path>
                <path d="M17.5384615,10.8923077 L8.30769231,10.8923077 C7.79790769,10.8923077 7.38461538,11.3056 7.38461538,11.8153846 C7.38461538,12.3251692 7.79790769,12.7384615 8.30769231,12.7384615 L17.5384615,12.7384615 C18.0482462,12.7384615 18.4615385,12.3251692 18.4615385,11.8153846 C18.4615385,11.3056 18.0482462,10.8923077 17.5384615,10.8923077 Z" id="Path" fill="#52CA11" fill-rule="nonzero"></path>
                <path d="M17.5384615,14.8923077 L8.30769231,14.8923077 C7.79790769,14.8923077 7.38461538,15.3056 7.38461538,15.8153846 C7.38461538,16.3251692 7.79790769,16.7384615 8.30769231,16.7384615 L17.5384615,16.7384615 C18.0482462,16.7384615 18.4615385,16.3251692 18.4615385,15.8153846 C18.4615385,15.3056 18.0482462,14.8923077 17.5384615,14.8923077 Z" id="Path" fill="#52CA11" fill-rule="nonzero"></path>
                <circle id="Oval" fill="#52CA11" fill-rule="nonzero" cx="4.61538462" cy="11.8153846" r="1"></circle>
                <circle id="Oval" fill="#52CA11" fill-rule="nonzero" cx="4.61538462" cy="15.8153846" r="1"></circle>
            </g>
        </g>
    </g>
</svg>