<?xml version="1.0" encoding="UTF-8"?>
<svg width="16px" height="16px" viewBox="0 0 16 16" version="1.1" xmlns="http://www.w3.org/2000/svg" xmlns:xlink="http://www.w3.org/1999/xlink">
    <title>6995050E-32C3-4471-A03F-6562964B85E9</title>
    <g id="Sistema*-(doing)" stroke="none" stroke-width="1" fill="none" fill-rule="evenodd">
        <g id="07" transform="translate(-413.000000, -32.000000)" fill="#122544" fill-rule="nonzero" stroke="#122544" stroke-width="0.8">
            <g id="Search-icon" transform="translate(414.000000, 33.000000)">
                <path d="M14.0440705,13.4057617 L9.80769231,9.07552083 C10.6522436,8.05175781 11.0745192,6.87120226 11.0745192,5.53385417 C11.0745192,4.52853733 10.8315972,3.60161675 10.3457532,2.75309245 C9.85990919,1.90456814 9.19698184,1.23358832 8.35697115,0.740152995 C7.51696047,0.246717665 6.60430021,0 5.61899038,0 C4.63368056,0 3.7232906,0.246717665 2.88782051,0.740152995 C2.05235043,1.23358832 1.39169338,1.90456814 0.905849359,2.75309245 C0.420005342,3.60161675 0.177083333,4.52853733 0.177083333,5.53385417 C0.177083333,6.53917101 0.420005342,7.46609158 0.905849359,8.31461589 C1.39169338,9.16314019 2.05235043,9.83412001 2.88782051,10.3275553 C3.7232906,10.8209907 4.63595085,11.0677083 5.62580128,11.0677083 C6.97889957,11.0677083 8.16853632,10.6157769 9.19471154,9.71191406 L13.4174679,14.0283203 C13.5082799,14.1205512 13.6127137,14.1666667 13.7307692,14.1666667 C13.8488248,14.1666667 13.9509882,14.122857 14.0372596,14.0352376 C14.123531,13.9476183 14.1666667,13.8415527 14.1666667,13.717041 C14.1666667,13.5925293 14.1258013,13.4887695 14.0440705,13.4057617 Z M5.62580128,10.1961263 C4.7903312,10.1961263 4.02069979,9.986301 3.31690705,9.56665039 C2.61311432,9.14699978 2.05689103,8.57977973 1.64823718,7.86499023 C1.23958333,7.15020074 1.03525641,6.37315538 1.03525641,5.53385417 C1.03525641,4.69455295 1.23958333,3.9175076 1.64823718,3.2027181 C2.05689103,2.4879286 2.61311432,1.92070855 3.31690705,1.50105794 C4.02069979,1.08140734 4.7880609,0.871582031 5.61899038,0.871582031 C6.44991987,0.871582031 7.21728098,1.08140734 7.92107372,1.50105794 C8.62486645,1.92070855 9.18108974,2.4879286 9.58974359,3.2027181 C9.99839744,3.9175076 10.2027244,4.69455295 10.2027244,5.53385417 C10.2027244,5.89355469 10.161859,6.24864366 10.0801282,6.59912109 C9.99839744,6.94959852 9.88261218,7.27701823 9.73277244,7.58138021 C9.58293269,7.88574219 9.40357906,8.17396376 9.19471154,8.44604492 C8.98584402,8.71812609 8.74973291,8.9602322 8.48637821,9.17236328 C8.2230235,9.38449436 7.94150641,9.56665039 7.64182692,9.71883138 C7.34214744,9.87101237 7.01976496,9.98860677 6.67467949,10.0716146 C6.32959402,10.1546224 5.97996795,10.1961263 5.62580128,10.1961263 Z" id="Icon-Shape"></path>
            </g>
        </g>
    </g>
</svg>