<?xml version="1.0" encoding="UTF-8"?>
<svg width="11px" height="7px" viewBox="0 0 11 7" version="1.1" xmlns="http://www.w3.org/2000/svg" xmlns:xlink="http://www.w3.org/1999/xlink">
    <title>8B475C0B-AE8B-4EA2-8BC6-BE0C695196A9</title>
    <g id="Sistema*-(doing)" stroke="none" stroke-width="1" fill="none" fill-rule="evenodd">
        <g id="21-2" transform="translate(-228.000000, -153.000000)" fill="#122544">
            <path d="M229.685705,153.300237 L233.505119,157.2891 L237.324534,153.300237 C237.572473,153.041298 237.933852,152.940171 238.272544,153.034949 C238.611235,153.129727 238.875783,153.406012 238.966535,153.75973 C239.057288,154.113447 238.960456,154.490859 238.712517,154.749798 L234.194189,159.468582 C234.010262,159.661063 233.760576,159.769231 233.500197,159.769231 C233.239818,159.769231 232.990133,159.661063 232.806206,159.468582 L228.287878,154.749798 C228.103573,154.557711 228,154.296949 228,154.025018 C228,153.753087 228.103573,153.492324 228.287878,153.300237 C228.671788,152.909575 229.301794,152.899295 229.685705,153.300237 Z" id="Arrow-icon-Copy" transform="translate(233.500000, 156.384615) rotate(-180.000000) translate(-233.500000, -156.384615) "></path>
        </g>
    </g>
</svg>