<?xml version="1.0" encoding="UTF-8"?>
<svg width="23px" height="24px" viewBox="0 0 23 24" version="1.1" xmlns="http://www.w3.org/2000/svg" xmlns:xlink="http://www.w3.org/1999/xlink">
    <title>767F9EDE-4D15-4EE6-9A07-46ACFE70FD0F</title>
    <g id="Sistema*-(doing)" stroke="none" stroke-width="1" fill="none" fill-rule="evenodd">
        <g id="19" transform="translate(-1058.000000, -107.000000)">
            <g id="Nuevo" transform="translate(1058.000000, 108.000000)">
                <g id="Portafolio" transform="translate(0.000000, 3.000000)">
                    <rect id="ViewBox" x="0" y="0" width="20" height="19.1452991"></rect>
                    <path d="M18.3298611,7.64957265 L16.6666667,7.64957265 L16.6666667,5.85470085 C16.6666667,4.86378205 15.9201389,4.05982906 15,4.05982906 L9.44444444,4.05982906 L7.22222222,1.66666667 L1.66666667,1.66666667 C0.746527778,1.66666667 0,2.47061966 0,3.46153846 L0,14.2307692 C0,15.221688 0.746527778,16.025641 1.66666667,16.025641 L15.5555556,16.025641 C16.1284722,16.025641 16.6631944,15.7077991 16.96875,15.1805556 L19.7430556,10.3942308 C20.4375,9.20138889 19.6388889,7.64957265 18.3298611,7.64957265 Z M1.66666667,3.68589744 C1.66666667,3.5625 1.76041667,3.46153846 1.875,3.46153846 L6.53125,3.46153846 L8.75347222,5.85470085 L14.7916667,5.85470085 C14.90625,5.85470085 15,5.95566239 15,6.07905983 L15,7.64957265 L5.27777778,7.64957265 C4.69444444,7.64957265 4.15277778,7.97863248 3.85069444,8.51709402 L1.66666667,12.4134615 L1.66666667,3.68589744 Z M15.5555556,14.2307692 L2.5,14.2307692 L5.18055556,9.44444444 L18.3333333,9.44444444 L15.5555556,14.2307692 Z" id="Shape" fill="#52CA11" fill-rule="nonzero"></path>
                </g>
                <path d="M21.6484375,2.05078125 L20.1445312,2.05078125 L20.1445312,0.546875 C20.1445312,0.244835938 19.8996953,0 19.5976562,0 C19.2956172,0 19.0507812,0.244835938 19.0507812,0.546875 L19.0507812,2.05078125 L17.546875,2.05078125 C17.2448359,2.05078125 17,2.29561719 17,2.59765625 C17,2.89969531 17.2448359,3.14453125 17.546875,3.14453125 L19.0507812,3.14453125 L19.0507812,4.6484375 C19.0507812,4.95047656 19.2956172,5.1953125 19.5976562,5.1953125 C19.8996953,5.1953125 20.1445312,4.95047656 20.1445312,4.6484375 L20.1445312,3.14453125 L21.6484375,3.14453125 C21.9504766,3.14453125 22.1953125,2.89969531 22.1953125,2.59765625 C22.1953125,2.29561719 21.9504766,2.05078125 21.6484375,2.05078125 Z" id="Path" stroke="#52CA11" stroke-width="0.3" fill="#52CA11" fill-rule="nonzero"></path>
            </g>
        </g>
    </g>
</svg>