<?xml version="1.0" standalone="no"?>
<!DOCTYPE svg PUBLIC "-//W3C//DTD SVG 20010904//EN"
 "http://www.w3.org/TR/2001/REC-SVG-20010904/DTD/svg10.dtd">
<svg version="1.0" xmlns="http://www.w3.org/2000/svg"
 width="528.000000pt" height="528.000000pt" viewBox="0 0 528.000000 528.000000"
 preserveAspectRatio="xMidYMid meet">
<metadata>
Created by potrace 1.14, written by Peter Selinger 2001-2017
</metadata>
<g transform="translate(0.000000,528.000000) scale(0.100000,-0.100000)"
fill="#000000" stroke="none">
<path d="M1 3333 c1 -1748 2 -1874 19 -1968 10 -55 28 -131 40 -170 12 -38 24
-79 27 -90 4 -11 12 -29 19 -40 6 -11 15 -31 19 -44 8 -25 93 -178 113 -202 7
-8 38 -48 71 -89 206 -263 526 -445 871 -496 25 -4 926 -8 2002 -9 1467 -2
1958 0 1960 9 8 22 1 3683 -6 3746 -8 65 -11 83 -21 130 -3 14 -7 34 -9 45 -7
36 -59 190 -68 199 -4 6 -8 15 -8 22 0 30 -124 234 -199 327 -33 41 -148 154
-196 192 -27 22 -51 43 -53 48 -2 4 -7 7 -12 7 -4 0 -32 16 -61 36 -59 40
-207 113 -279 137 -57 19 -130 40 -150 42 -13 2 -38 7 -105 23 -11 3 -910 7
-1998 9 l-1977 3 1 -1867z"/>
</g>
</svg>
