<?xml version="1.0" encoding="UTF-8"?>
<svg width="38px" height="38px" viewBox="0 0 38 38" version="1.1" xmlns="http://www.w3.org/2000/svg" xmlns:xlink="http://www.w3.org/1999/xlink">
    <title>5EFC0588-C20B-4828-A8AE-3D23B785F41E</title>
    <g id="Sistema*-(doing)" stroke="none" stroke-width="1" fill="none" fill-rule="evenodd">
        <g id="06" transform="translate(-940.000000, -392.000000)">
            <g id="Group-7" transform="translate(849.000000, 363.000000)">
                <g id="Corporativo" transform="translate(91.000000, 29.000000)">
                    <rect id="ViewBox" x="0" y="0" width="38" height="38"></rect>
                    <polygon id="Path" fill-opacity="0.35" fill="#52CA11" fill-rule="nonzero" points="9.5 9.5 11.875 9.5 11.875 14.25 9.5 14.25"></polygon>
                    <polygon id="Path" fill-opacity="0.35" fill="#52CA11" fill-rule="nonzero" points="9.5 16.625 11.875 16.625 11.875 21.375 9.5 21.375"></polygon>
                    <polygon id="Path" fill-opacity="0.35" fill="#52CA11" fill-rule="nonzero" points="16.625 9.5 19 9.5 19 14.25 16.625 14.25"></polygon>
                    <polygon id="Path" fill-opacity="0.35" fill="#52CA11" fill-rule="nonzero" points="16.625 16.625 19 16.625 19 21.375 16.625 21.375"></polygon>
                    <polygon id="Path" fill-opacity="0.35" fill="#52CA11" fill-rule="nonzero" points="9.5 23.75 11.875 23.75 11.875 28.5 9.5 28.5"></polygon>
                    <polygon id="Path" fill-opacity="0.35" fill="#52CA11" fill-rule="nonzero" points="16.625 23.75 19 23.75 19 28.5 16.625 28.5"></polygon>
                    <path d="M35.625,16.625 C35.625,15.3133237 34.5616763,14.25 33.25,14.25 L26.125,14.25 L26.125,4.75 C26.125,3.43832372 25.0616763,2.375 23.75,2.375 L4.75,2.375 C3.43832372,2.375 2.375,3.43832372 2.375,4.75 L2.375,35.625 L35.625,35.625 L35.625,16.625 Z M4.75,4.75 L23.75,4.75 L23.75,33.25 L4.75,33.25 L4.75,4.75 Z M26.125,33.25 L26.125,16.625 L33.25,16.625 L33.25,33.25 L26.125,33.25 Z" id="Shape" fill-opacity="0.35" fill="#52CA11" fill-rule="nonzero"></path>
                </g>
            </g>
        </g>
    </g>
</svg>