<?xml version="1.0" encoding="UTF-8"?>
<svg width="41px" height="44px" viewBox="0 0 41 44" version="1.1" xmlns="http://www.w3.org/2000/svg" xmlns:xlink="http://www.w3.org/1999/xlink">
    <title>66567B40-D9EA-4CC5-963D-ABDE30306A99</title>
    <g id="Sistema*-(doing)" stroke="none" stroke-width="1" fill="none" fill-rule="evenodd">
        <g id="06" transform="translate(-463.000000, -384.000000)" fill="#122544" fill-rule="nonzero">
            <g id="Group-6" transform="translate(370.000000, 371.000000)">
                <g id="Demo" transform="translate(93.000000, 13.338573)">
                    <g id="birrete" transform="translate(22.439602, 18.000000) rotate(20.000000) translate(-22.439602, -18.000000) translate(7.439602, 5.000000)">
                        <path d="M29.4135352,5.05980469 L15.2924414,0.0775195313 C15.1032422,0.0107226563 14.8968164,0.0107226563 14.7076172,0.0775195313 L0.586523438,5.05980469 C0.235429688,5.18367188 0.000468750001,5.5153125 -7.02364146e-07,5.88761719 C-0.000468749999,6.25992188 0.233730469,6.59208984 0.58453125,6.71677734 L14.705625,11.7369141 C14.8008398,11.7707813 14.9004492,11.7877148 14.9999993,11.7877148 C15.0996094,11.7877148 15.1991602,11.7707813 15.294375,11.7369141 L29.4154688,6.71677734 C29.7662695,6.59208984 30.0004102,6.25992188 29.9999993,5.88761719 C29.9995313,5.5153125 29.7645703,5.18367188 29.4135352,5.05980469 Z" id="Path"></path>
                        <path d="M27.889043,16.7914453 L27.889043,9.12503906 L26.1312305,9.74994141 L26.1312305,16.7914453 C25.6017773,17.0961914 25.245,17.6671875 25.245,18.3219727 C25.245,18.9766992 25.6017773,19.5477539 26.1312305,19.8525 L26.1312305,24.1717969 C26.1312305,24.6571875 26.5247461,25.0507031 27.0101367,25.0507031 C27.4955273,25.0507031 27.889043,24.6571875 27.889043,24.1717969 L27.889043,19.8525586 C28.4184961,19.5478711 28.7752734,18.9767578 28.7752734,18.3220313 C28.7752734,17.6672461 28.4185547,17.0961914 27.889043,16.7914453 Z" id="Path"></path>
                        <path d="M15,13.5455273 C14.6983008,13.5455273 14.4011719,13.4942578 14.1168164,13.3931836 L6.17835938,10.5710156 L6.17835938,14.4386719 C6.17835938,15.3849023 7.16548828,16.1851172 9.11232422,16.8169922 C10.8092578,17.3677734 12.9002344,17.6711133 15,17.6711133 C17.0997656,17.6711133 19.1906836,17.3677734 20.8876758,16.8169922 C22.8345117,16.1851172 23.8216406,15.3849023 23.8216406,14.4386719 L23.8216406,10.5710156 L15.8832422,13.3931836 C15.5988281,13.4942578 15.3016992,13.5455273 15,13.5455273 L15,13.5455273 Z" id="Path"></path>
                    </g>
                    <g id="enchufar" transform="translate(0.000000, 14.661427)">
                        <path d="M24.5438047,14.8203125 L27.1796875,14.8203125 C27.6327187,14.8203125 28,14.4530312 28,14 L28,6.0921875 C28,5.63915625 27.6327187,5.271875 27.1796875,5.271875 L20.0921875,5.271875 L20.0921875,3.45625 C20.0921875,1.55044531 18.5416875,0 16.6359375,0 C14.7301875,0 13.1796875,1.5505 13.1796875,3.45625 L13.1796875,5.271875 L6.0921875,5.271875 C5.63915625,5.271875 5.271875,5.63915625 5.271875,6.0921875 L5.271875,13.1796875 L3.45625,13.1796875 C1.5505,13.1796875 0,14.7301875 0,16.6359375 C0,18.5416875 1.5505,20.0921875 3.45625,20.0921875 L5.271875,20.0921875 L5.271875,27.1796875 C5.271875,27.6327187 5.63915625,28 6.0921875,28 L14,28 C14.4530312,28 14.8203125,27.6327187 14.8203125,27.1796875 L14.8203125,24.54375 C14.8203125,23.5425859 15.6348281,22.728125 16.6359375,22.728125 C17.6370469,22.728125 18.4515625,23.5426406 18.4515625,24.54375 L18.4515625,27.1796875 C18.4515625,27.6327187 18.8188437,28 19.271875,28 L27.1796875,28 C27.6327187,28 28,27.6327187 28,27.1796875 L28,19.271875 C28,18.8188437 27.6327187,18.4515625 27.1796875,18.4515625 L24.5438047,18.4515625 C23.5425859,18.4515625 22.728125,17.6370469 22.728125,16.6359375 C22.728125,15.6348281 23.5425859,14.8203125 24.5438047,14.8203125 Z M24.5438047,20.0921875 L26.359375,20.0921875 L26.359375,26.359375 L20.0921875,26.359375 L20.0921875,24.54375 C20.0921875,22.6379453 18.5416875,21.0875 16.6359375,21.0875 C14.7301875,21.0875 13.1796875,22.6379453 13.1796875,24.54375 L13.1796875,26.359375 L6.9125,26.359375 L6.9125,19.271875 C6.9125,18.8188437 6.54521875,18.4515625 6.0921875,18.4515625 L3.45625,18.4515625 C2.45508594,18.4515625 1.640625,17.6370469 1.640625,16.6359375 C1.640625,15.6348281 2.45514062,14.8203125 3.45625,14.8203125 L6.0921875,14.8203125 C6.54521875,14.8203125 6.9125,14.4530313 6.9125,14 L6.9125,6.9125 L14,6.9125 C14.4530313,6.9125 14.8203125,6.54521875 14.8203125,6.0921875 L14.8203125,3.45625 C14.8203125,2.45508594 15.6348281,1.640625 16.6359375,1.640625 C17.6370469,1.640625 18.4515625,2.45514062 18.4515625,3.45625 L18.4515625,6.0921875 C18.4515625,6.54521875 18.8188437,6.9125 19.271875,6.9125 L26.359375,6.9125 L26.359375,13.1796875 L24.5438047,13.1796875 C22.6379453,13.1796875 21.0875,14.7301875 21.0875,16.6359375 C21.0875,18.5416875 22.6379453,20.0921875 24.5438047,20.0921875 Z" id="Shape"></path>
                    </g>
                </g>
            </g>
        </g>
    </g>
</svg>