<?xml version="1.0" encoding="UTF-8"?>
<svg width="27px" height="27px" viewBox="0 0 27 27" version="1.1" xmlns="http://www.w3.org/2000/svg" xmlns:xlink="http://www.w3.org/1999/xlink">
    <title>E3BB9DF2-AD5D-4445-BF3C-28841AF3623D</title>
    <g id="Sistema*-(doing)" stroke="none" stroke-width="1" fill="none" fill-rule="evenodd">
        <g id="06" transform="translate(-707.000000, -398.000000)">
            <g id="Group-3" transform="translate(610.000000, 363.000000)">
                <g id="Profesional" transform="translate(97.000000, 35.000000)">
                    <rect id="ViewBox" x="0" y="0" width="27" height="27"></rect>
                    <path d="M15.609375,0 C17.2403409,0 18.5625,1.3221591 18.5625,2.953125 L18.5625,2.953125 L18.5625,5.0625 L24.046875,5.0625 C25.6778409,5.0625 27,6.3846591 27,8.015625 L27,8.015625 L27,22.359375 C27,23.9903409 25.6778409,25.3125 24.046875,25.3125 L24.046875,25.3125 L2.953125,25.3125 C1.323,25.3125 0,23.9895 0,22.359375 L0,22.359375 L0,8.015625 C0,6.3846591 1.3221591,5.0625 2.953125,5.0625 L2.953125,5.0625 L8.4375,5.0625 L8.4375,2.953125 C8.4375,1.3221591 9.7596591,0 11.390625,0 L11.390625,0 Z M25,14.8772188 C23.9623366,15.5849483 22.7269289,15.9634378 21.4615385,15.9612905 L16,15.961 L16,16 C16,16.5522847 15.5522847,17 15,17 L12,17 C11.4477153,17 11,16.5522847 11,16 L11,15.961 L5.53846154,15.9612905 C4.27307108,15.9634378 3.03766342,15.5849483 2,14.8772188 L2,22.4449732 C2,22.6835728 2.19815385,22.8772188 2.44230769,22.8772188 L24.5576923,22.8772188 C24.8019721,22.8772188 25,22.6836958 25,22.4449732 L25,14.8772188 Z M24.5576923,7.546875 L2.44230769,7.546875 C2.1980279,7.546875 2,7.73875296 2,7.97544643 L2,10.1183036 C2,12.0118513 3.58422319,13.546875 5.53846154,13.546875 L11,13.546 L11,13 C11,12.4477153 11.4477153,12 12,12 L15,12 C15.5522847,12 16,12.4477153 16,13 L16,13.546 L21.4615385,13.546875 C23.4157768,13.546875 25,12.0118513 25,10.1183036 L25,7.97544643 C25,7.73875296 24.8019721,7.546875 24.5576923,7.546875 Z M15.609375,2.0625 L11.390625,2.0625 C11.1576299,2.0625 10.96875,2.28635763 10.96875,2.5625 L10.96875,5.0625 L16.03125,5.0625 L16.03125,2.5625 C16.03125,2.28635763 15.8423701,2.0625 15.609375,2.0625 Z" id="Combined-Shape" fill-opacity="0.35" fill="#52CA11"></path>
                </g>
            </g>
        </g>
    </g>
</svg>