<?xml version="1.0" encoding="UTF-8"?>
<svg width="204px" height="40px" viewBox="0 0 204 40" version="1.1" xmlns="http://www.w3.org/2000/svg" xmlns:xlink="http://www.w3.org/1999/xlink">
    <title>E5AFC8CC-0867-4E2E-A6CF-684FB846ADB9</title>
    <defs>
        <linearGradient x1="24.6658937%" y1="-3.32546343%" x2="73.5820044%" y2="96.8262227%" id="linearGradient-1">
            <stop stop-color="#98EB6B" offset="0%"></stop>
            <stop stop-color="#52CA11" offset="100%"></stop>
        </linearGradient>
    </defs>
    <g id="Sistema-1" stroke="none" stroke-width="1" fill="none" fill-rule="evenodd">
        <g id="01" transform="translate(-164.000000, -40.000000)">
            <g id="Goru-logo" transform="translate(164.000000, 40.000000)">
                <g id="Group" transform="translate(0.000000, 1.100000)">
                    <g id="Gestion-/-Portafolio-y-Proyectos" transform="translate(0.000000, 0.440000)">
                        <g id="Group-4">
                            <g id="Group-Copy" fill="url(#linearGradient-1)">
                                <path d="M0,0 L23.594571,0 C28.3200701,-8.68060101e-16 32.150844,3.83077391 32.150844,8.556273 L32.150844,31.11372 L32.150844,31.11372 L8.556273,31.11372 C3.83077391,31.11372 5.90777725e-15,27.2829461 0,22.557447 L0,0 L0,0 Z" id="Rectangle"></path>
                            </g>
                            <g id="Group-2" transform="translate(4.185841, 3.667279)" fill="#FFFFFF" fill-rule="nonzero">
                                <path d="M9.39635756,1.86421882 L9.40982882,1.84213658 C9.46468949,1.87634356 9.51734994,1.91375359 9.56751045,1.95414107 C9.93001937,2.24602053 10.1447049,2.67780396 10.1447049,3.14370124 C10.1447049,4.00184357 9.42326919,4.6925606 8.53914605,4.6925606 C8.1369054,4.6925606 7.8136052,4.56386054 7.48553407,4.31371772 L7.44905666,4.35003 C6.94717545,3.86536894 6.25720254,3.65462322 5.58103363,3.76176887 C5.1148815,3.83563528 4.6846133,4.05674147 4.34958745,4.4036709 C3.95363191,4.81369486 3.73894035,5.35014878 3.73466976,5.90878082 C3.73010545,6.50583446 3.96603305,7.08004024 4.40414915,7.50312403 C4.81896001,7.90370222 5.36300286,8.11882612 5.92805839,8.1185516 C6.5449964,8.11825187 7.1280784,7.88317852 7.49345289,7.46060635 L7.50294553,7.44695098 L6.75817095,6.88281424 C6.58739193,6.75333047 6.48707042,6.55137033 6.48707042,6.33705392 C6.48707042,5.95879785 6.79370755,5.65216072 7.17196363,5.65216072 L10.8529455,5.65195098 L11.1288953,5.61589438 C11.3374985,7.17782271 10.8587518,8.54844922 9.70360053,9.70360052 C7.83995639,11.5672447 4.12869575,11.6836608 2.14863547,9.70360052 C1.10926701,8.66423206 0.558740777,7.26952883 0.584831998,5.82881261 C0.59712727,5.14988703 0.737951932,4.4785307 1.00156588,3.85203385 C1.26730735,3.22048078 1.65387946,2.64339149 2.14863547,2.14863547 C4.13532505,0.161945902 7.29748065,0.0671403511 9.39635756,1.86421882 Z M2.53606958,2.53606958 C2.09167972,2.98045944 1.74494483,3.49807825 1.50659353,4.06453665 C1.27009477,4.62659239 1.14369574,5.22917708 1.13265674,5.83873366 C1.10923201,7.13221023 1.60298351,8.38308034 2.53606958,9.31616642 C4.29653184,11.0766287 7.66124984,10.971083 9.31616642,9.31616642 C10.2226316,8.40970123 10.6571468,7.37658398 10.6270475,6.2006135 L7.17196363,6.20007528 C7.09631241,6.20007528 7.03498499,6.26140271 7.03498499,6.33705392 C7.03498499,6.37991721 7.05504929,6.42030923 7.08920509,6.44620599 L8.28329333,7.35155757 L7.95225919,7.78816583 L7.94177199,7.77893114 C7.93063037,7.7924112 7.91934654,7.80575871 7.90792058,7.81897335 C7.43196262,8.36944032 6.69613747,8.66609307 5.92832458,8.6664661 C5.22255687,8.66680898 4.54159522,8.39754504 4.02353571,7.89726079 C3.47633113,7.36883147 3.18107107,6.65022107 3.1867712,5.90459228 C3.19210581,5.20677727 3.46087019,4.53521057 3.9554507,4.02305746 C4.37383696,3.5898058 4.91262351,3.3129342 5.49528108,3.22060635 C6.27945189,3.09634674 7.07981927,3.31489439 7.69216389,3.8317135 L7.71907807,3.79853789 C7.99949344,4.03582802 8.23588156,4.14464603 8.53914605,4.14464603 C9.12586939,4.14464603 9.59679034,3.69377686 9.59679034,3.14370124 C9.59679034,2.90508213 9.50813265,2.67989891 9.35105145,2.50220848 L9.31616642,2.53606958 C7.44389438,0.663797535 4.40834162,0.663797535 2.53606958,2.53606958 Z" id="Combined-Shape"></path>
                            </g>
                            <text id="O" font-family="GothamBold, Gotham Bold" font-size="14.001174" font-weight="bold" fill="#FFFFFF">
                                <tspan x="15.816141" y="14.667058">O</tspan>
                            </text>
                            <text id="RU" font-family="GothamBold, Gotham Bold" font-size="13.741893" font-weight="bold" line-spacing="12.704769" letter-spacing="1.6593985" fill="#FFFFFF">
                                <tspan x="5.444901" y="24.779017">R</tspan>
                                <tspan x="17.0396881" y="24.779017">U</tspan>
                            </text>
                        </g>
                        <circle id="Oval-Copy" fill="#52CA11" cx="132.55" cy="28.93" r="1.65"></circle>
                    </g>
                </g>
                <path d="M45.7875,14.7815 C49.236,14.7815 51.3645,12.455 51.3645,9.6665 L51.3645,9.221 L45.573,9.221 L45.573,10.046 L50.4735,10.046 C50.292,12.2075 48.5925,13.94 45.7875,13.94 C42.6855,13.94 40.59,11.663 40.59,8.825 C40.59,5.987 42.6855,3.71 45.7215,3.71 C47.5365,3.71 49.1535,4.667 49.9125,6.119 L50.688,5.657 C49.731,3.9905 47.8665,2.8685 45.7215,2.8685 C42.207,2.8685 39.7155,5.525 39.7155,8.825 C39.7155,12.125 42.207,14.7815 45.7875,14.7815 Z M57.1725,14.7815 C58.806,14.7815 60.093,14.039 60.7695,12.917 L60.0435,12.488 C59.565,13.3625 58.542,13.9895 57.189,13.9895 C55.308,13.9895 53.889,12.7685 53.691,10.904 L61.1655,10.904 C61.1655,10.772 61.182,10.64 61.182,10.508 C61.182,8.2475 59.6145,6.1685 57.1065,6.1685 C54.582,6.1685 52.833,8.0495 52.833,10.475 C52.833,12.9665 54.6315,14.7815 57.1725,14.7815 Z M60.324,10.0955 L53.691,10.0955 C53.856,8.264 55.2255,6.9605 57.1065,6.9605 C58.7235,6.9605 60.1425,8.0825 60.324,10.0955 Z M65.3895,14.7815 C67.155,14.7815 68.343,13.7915 68.343,12.4385 C68.343,9.419 63.3435,10.7225 63.3435,8.5115 C63.3435,7.5215 64.251,6.9605 65.3235,6.9605 C66.231,6.9605 67.089,7.3565 67.4355,8.2145 L68.1285,7.8185 C67.683,6.812 66.66,6.1685 65.3235,6.1685 C63.6405,6.1685 62.5185,7.208 62.5185,8.5115 C62.5185,11.4815 67.518,10.1945 67.518,12.4385 C67.518,13.478 66.5445,13.9895 65.3895,13.9895 C64.152,13.9895 63.261,13.4285 62.964,12.5375 L62.2545,12.95 C62.6505,14.006 63.7395,14.7815 65.3895,14.7815 Z M74.2335,14.6 L74.2335,13.8575 C72.5505,14.006 71.775,13.973 71.775,12.521 L71.775,7.1585 L74.2335,7.1585 L74.2335,6.35 L71.775,6.35 L71.775,4.04 L70.9335,4.2875 L70.9335,6.35 L69.1185,6.35 L69.1185,7.1585 L70.9335,7.1585 L70.9335,12.521 C70.9335,14.402 72.072,14.93 74.2335,14.6 Z M76.626,4.3535 C76.989,4.3535 77.286,4.0565 77.286,3.6935 C77.286,3.347 76.989,3.05 76.626,3.05 C76.263,3.05 75.966,3.347 75.966,3.6935 C75.966,4.0565 76.263,4.3535 76.626,4.3535 Z M77.0385,14.6 L77.0385,6.35 L76.2135,6.35 L76.2135,14.6 L77.0385,14.6 Z M83.424,5.195 L84.9255,3.0995 L83.9355,3.0995 L82.6155,5.195 L83.424,5.195 Z M83.358,14.7815 C85.7505,14.7815 87.681,12.917 87.681,10.475 C87.681,8.033 85.7505,6.1685 83.358,6.1685 C80.949,6.1685 79.0185,8.033 79.0185,10.475 C79.0185,12.917 80.949,14.7815 83.358,14.7815 Z M83.358,13.9895 C81.3945,13.9895 79.86,12.4385 79.86,10.475 C79.86,8.5115 81.3945,6.9605 83.358,6.9605 C85.3215,6.9605 86.8395,8.5115 86.8395,10.475 C86.8395,12.4385 85.3215,13.9895 83.358,13.9895 Z M90.486,14.6 L90.486,10.244 C90.486,8.0165 91.7565,6.9605 93.3735,6.9605 C94.9245,6.9605 95.799,7.9505 95.799,9.4685 L95.799,14.6 L96.6405,14.6 L96.6405,9.4685 C96.6405,7.472 95.403,6.1685 93.4395,6.1685 C92.169,6.1685 91.113,6.6965 90.486,7.9175 L90.486,6.35 L89.661,6.35 L89.661,14.6 L90.486,14.6 Z M107.1015,14.7815 C108.702,14.7815 109.9725,13.9565 110.649,12.686 L110.649,14.6 L111.474,14.6 L111.474,3.05 L110.649,3.05 L110.649,8.264 C109.9725,6.9935 108.702,6.1685 107.1015,6.1685 C104.742,6.1685 102.828,8.033 102.828,10.475 C102.828,12.917 104.742,14.7815 107.1015,14.7815 Z M107.151,13.9895 C105.1875,13.9895 103.653,12.4385 103.653,10.475 C103.653,8.5115 105.1875,6.9605 107.151,6.9605 C109.1145,6.9605 110.649,8.5115 110.649,10.475 C110.649,12.4385 109.1145,13.9895 107.151,13.9895 Z M117.7935,14.7815 C119.427,14.7815 120.714,14.039 121.3905,12.917 L120.6645,12.488 C120.186,13.3625 119.163,13.9895 117.81,13.9895 C115.929,13.9895 114.51,12.7685 114.312,10.904 L121.7865,10.904 C121.7865,10.772 121.803,10.64 121.803,10.508 C121.803,8.2475 120.2355,6.1685 117.7275,6.1685 C115.203,6.1685 113.454,8.0495 113.454,10.475 C113.454,12.9665 115.2525,14.7815 117.7935,14.7815 Z M120.945,10.0955 L114.312,10.0955 C114.477,8.264 115.8465,6.9605 117.7275,6.9605 C119.3445,6.9605 120.7635,8.0825 120.945,10.0955 Z M129.1785,14.6 L129.1785,10.1945 L132.231,10.1945 C134.31,10.1945 135.828,8.66 135.828,6.6305 C135.828,4.5845 134.31,3.05 132.231,3.05 L128.304,3.05 L128.304,14.6 L129.1785,14.6 Z M132.231,9.3695 L129.1785,9.3695 L129.1785,3.875 L132.231,3.875 C133.815,3.875 134.9535,5.03 134.9535,6.6305 C134.9535,8.2145 133.815,9.3695 132.231,9.3695 Z M140.943,14.7815 C143.3355,14.7815 145.266,12.917 145.266,10.475 C145.266,8.033 143.3355,6.1685 140.943,6.1685 C138.534,6.1685 136.6035,8.033 136.6035,10.475 C136.6035,12.917 138.534,14.7815 140.943,14.7815 Z M140.943,13.9895 C138.9795,13.9895 137.445,12.4385 137.445,10.475 C137.445,8.5115 138.9795,6.9605 140.943,6.9605 C142.9065,6.9605 144.4245,8.5115 144.4245,10.475 C144.4245,12.4385 142.9065,13.9895 140.943,13.9895 Z M148.071,14.6 L148.071,10.013 C148.071,7.901 149.4075,7.0265 150.8265,7.0265 L150.8265,6.2345 C149.7045,6.2345 148.632,6.6635 148.071,7.967 L148.071,6.35 L147.246,6.35 L147.246,14.6 L148.071,14.6 Z M156.8325,14.6 L156.8325,13.8575 C155.1495,14.006 154.374,13.973 154.374,12.521 L154.374,7.1585 L156.8325,7.1585 L156.8325,6.35 L154.374,6.35 L154.374,4.04 L153.5325,4.2875 L153.5325,6.35 L151.7175,6.35 L151.7175,7.1585 L153.5325,7.1585 L153.5325,12.521 C153.5325,14.402 154.671,14.93 156.8325,14.6 Z M162.03,14.7815 C163.614,14.7815 164.8845,13.973 165.5775,12.7355 L165.5775,14.6 L166.419,14.6 L166.419,6.35 L165.5775,6.35 L165.5775,8.2145 C164.8845,6.977 163.614,6.1685 162.03,6.1685 C159.687,6.1685 157.7565,8.033 157.7565,10.475 C157.7565,12.917 159.687,14.7815 162.03,14.7815 Z M162.096,13.9895 C160.1325,13.9895 158.598,12.4385 158.598,10.475 C158.598,8.5115 160.1325,6.9605 162.096,6.9605 C164.0595,6.9605 165.5775,8.5115 165.5775,10.475 C165.5775,12.4385 164.0595,13.9895 162.096,13.9895 Z M170.3955,14.6 L170.3955,7.1585 L172.854,7.1585 L172.854,6.35 L170.3955,6.35 L170.3955,5.9045 C170.3955,4.304 171.171,3.5285 172.854,3.6605 L172.854,2.8685 C170.6925,2.7035 169.554,3.875 169.554,5.9045 L169.554,6.35 L168.135,6.35 L168.135,7.1585 L169.554,7.1585 L169.554,14.6 L170.3955,14.6 Z M177.3585,14.7815 C179.751,14.7815 181.6815,12.917 181.6815,10.475 C181.6815,8.033 179.751,6.1685 177.3585,6.1685 C174.9495,6.1685 173.019,8.033 173.019,10.475 C173.019,12.917 174.9495,14.7815 177.3585,14.7815 Z M177.3585,13.9895 C175.395,13.9895 173.8605,12.4385 173.8605,10.475 C173.8605,8.5115 175.395,6.9605 177.3585,6.9605 C179.322,6.9605 180.84,8.5115 180.84,10.475 C180.84,12.4385 179.322,13.9895 177.3585,13.9895 Z M184.4865,14.6 L184.4865,2.555 L183.6615,2.555 L183.6615,14.6 L184.4865,14.6 Z M187.44,4.3535 C187.803,4.3535 188.1,4.0565 188.1,3.6935 C188.1,3.347 187.803,3.05 187.44,3.05 C187.077,3.05 186.78,3.347 186.78,3.6935 C186.78,4.0565 187.077,4.3535 187.44,4.3535 Z M187.8525,14.6 L187.8525,6.35 L187.0275,6.35 L187.0275,14.6 L187.8525,14.6 Z M194.172,14.7815 C196.5645,14.7815 198.495,12.917 198.495,10.475 C198.495,8.033 196.5645,6.1685 194.172,6.1685 C191.763,6.1685 189.8325,8.033 189.8325,10.475 C189.8325,12.917 191.763,14.7815 194.172,14.7815 Z M194.172,13.9895 C192.2085,13.9895 190.674,12.4385 190.674,10.475 C190.674,8.5115 192.2085,6.9605 194.172,6.9605 C196.1355,6.9605 197.6535,8.5115 197.6535,10.475 C197.6535,12.4385 196.1355,13.9895 194.172,13.9895 Z M43.5765,32.959 L47.1405,23.95 L46.2495,23.95 L43.3785,31.2925 L40.0455,23.95 L39.1545,23.95 L42.9495,32.3485 L42.768,32.794 C42.2565,33.9985 41.415,34.8235 40.3095,34.7245 L40.3095,35.5 C41.7285,35.6155 42.9495,34.543 43.5765,32.959 Z M54.0705,32.2 L54.0705,27.7945 L57.123,27.7945 C59.202,27.7945 60.72,26.26 60.72,24.2305 C60.72,22.1845 59.202,20.65 57.123,20.65 L53.196,20.65 L53.196,32.2 L54.0705,32.2 Z M57.123,26.9695 L54.0705,26.9695 L54.0705,21.475 L57.123,21.475 C58.707,21.475 59.8455,22.63 59.8455,24.2305 C59.8455,25.8145 58.707,26.9695 57.123,26.9695 Z M63.3765,32.2 L63.3765,27.613 C63.3765,25.501 64.713,24.6265 66.132,24.6265 L66.132,23.8345 C65.01,23.8345 63.9375,24.2635 63.3765,25.567 L63.3765,23.95 L62.5515,23.95 L62.5515,32.2 L63.3765,32.2 Z M71.082,32.3815 C73.4745,32.3815 75.405,30.517 75.405,28.075 C75.405,25.633 73.4745,23.7685 71.082,23.7685 C68.673,23.7685 66.7425,25.633 66.7425,28.075 C66.7425,30.517 68.673,32.3815 71.082,32.3815 Z M71.082,31.5895 C69.1185,31.5895 67.584,30.0385 67.584,28.075 C67.584,26.1115 69.1185,24.5605 71.082,24.5605 C73.0455,24.5605 74.5635,26.1115 74.5635,28.075 C74.5635,30.0385 73.0455,31.5895 71.082,31.5895 Z M80.421,32.959 L83.985,23.95 L83.094,23.95 L80.223,31.2925 L76.89,23.95 L75.999,23.95 L79.794,32.3485 L79.6125,32.794 C79.101,33.9985 78.2595,34.8235 77.154,34.7245 L77.154,35.5 C78.573,35.6155 79.794,34.543 80.421,32.959 Z M88.9185,32.3815 C90.552,32.3815 91.839,31.639 92.5155,30.517 L91.7895,30.088 C91.311,30.9625 90.288,31.5895 88.935,31.5895 C87.054,31.5895 85.635,30.3685 85.437,28.504 L92.9115,28.504 C92.9115,28.372 92.928,28.24 92.928,28.108 C92.928,25.8475 91.3605,23.7685 88.8525,23.7685 C86.328,23.7685 84.579,25.6495 84.579,28.075 C84.579,30.5665 86.3775,32.3815 88.9185,32.3815 Z M92.07,27.6955 L85.437,27.6955 C85.602,25.864 86.9715,24.5605 88.8525,24.5605 C90.4695,24.5605 91.8885,25.6825 92.07,27.6955 Z M98.637,32.3815 C100.254,32.3815 101.64,31.5565 102.3,30.286 L101.607,29.8735 C101.0625,30.8965 99.9735,31.5895 98.637,31.5895 C96.6405,31.5895 95.139,30.0385 95.139,28.075 C95.139,26.1115 96.6405,24.5605 98.637,24.5605 C99.957,24.5605 101.079,25.237 101.5575,26.2765 L102.234,25.8805 C101.64,24.5935 100.254,23.7685 98.637,23.7685 C96.1455,23.7685 94.2975,25.633 94.2975,28.075 C94.2975,30.517 96.1455,32.3815 98.637,32.3815 Z M108.339,32.2 L108.339,31.4575 C106.656,31.606 105.8805,31.573 105.8805,30.121 L105.8805,24.7585 L108.339,24.7585 L108.339,23.95 L105.8805,23.95 L105.8805,21.64 L105.039,21.8875 L105.039,23.95 L103.224,23.95 L103.224,24.7585 L105.039,24.7585 L105.039,30.121 C105.039,32.002 106.1775,32.53 108.339,32.2 Z M113.6025,32.3815 C115.995,32.3815 117.9255,30.517 117.9255,28.075 C117.9255,25.633 115.995,23.7685 113.6025,23.7685 C111.1935,23.7685 109.263,25.633 109.263,28.075 C109.263,30.517 111.1935,32.3815 113.6025,32.3815 Z M113.6025,31.5895 C111.639,31.5895 110.1045,30.0385 110.1045,28.075 C110.1045,26.1115 111.639,24.5605 113.6025,24.5605 C115.566,24.5605 117.084,26.1115 117.084,28.075 C117.084,30.0385 115.566,31.5895 113.6025,31.5895 Z M122.3475,32.3815 C124.113,32.3815 125.301,31.3915 125.301,30.0385 C125.301,27.019 120.3015,28.3225 120.3015,26.1115 C120.3015,25.1215 121.209,24.5605 122.2815,24.5605 C123.189,24.5605 124.047,24.9565 124.3935,25.8145 L125.0865,25.4185 C124.641,24.412 123.618,23.7685 122.2815,23.7685 C120.5985,23.7685 119.4765,24.808 119.4765,26.1115 C119.4765,29.0815 124.476,27.7945 124.476,30.0385 C124.476,31.078 123.5025,31.5895 122.3475,31.5895 C121.11,31.5895 120.219,31.0285 119.922,30.1375 L119.2125,30.55 C119.6085,31.606 120.6975,32.3815 122.3475,32.3815 Z" id="GestióndePortafolioyProyectos" fill="#122544" fill-rule="nonzero"></path>
            </g>
        </g>
    </g>
</svg>